<?xml version="1.0" encoding="UTF-8"?>
<svg id="a" data-name="Layer 1" xmlns="http://www.w3.org/2000/svg" viewBox="0 0 195.06 209.55">
  <path d="M.19,147.24c36.06,17.28,85.16,5.53,104.78-30.5,22.74-42.31,1.39-95.67-43.46-111.99-5.37-2.04-10.96-3.45-16.65-4.36,0,0,.04-.4.04-.4,11.63.45,23.18,3.88,33.51,9.61,26.19,14.35,41.88,45.02,38.78,74.65-1.85,19.04-11.07,36.91-24.27,50.51-14.42,15.02-34.34,24.13-55.3,23.68-13.19-.21-26.44-3.84-37.61-10.85,0,0,.19-.35.19-.35H.19Z"/>
  <path d="M195.03,46.03c-69.46-2.39-109.15,75.68-64.8,129.6,0,0,4.43,4.92,4.43,4.92l4.86,4.54,5.25,4.13,5.56,3.75s-.14.26-.14.26c-7.92-4.25-15.11-9.88-21.13-16.55-32.09-35.34-25.18-91.74,14.69-118.08,14.95-10.03,33.4-14.68,51.32-12.87,0,0-.03.3-.03.3h0Z"/>
  <path d="M142.99.65c-6.54,30.26-21.51,74.79-30.34,104.89-9.43,30.04-21.8,75.05-33.21,104.01,6.6-30.25,21.48-74.8,30.34-104.89,9.47-30.03,21.74-75.07,33.21-104.01h0Z"/>
</svg>