<?xml version="1.0" encoding="UTF-8"?>
<svg id="b" data-name="Layer 2" xmlns="http://www.w3.org/2000/svg" viewBox="0 0 156.97 109.97">
  <g id="c" data-name="Layer 1">
    <path d="M110.9,55.64c-8.56,9.82-14.15,21.15-16.95,32.94.83-29.02,2.17-63.9.75-88.58-2.48,23.04-3,54.79-3.56,82.5-6.57-27.24-28.86-50.18-56.28-56.63-11.47-2.76-23.53-2.98-34.85-.31,0,0,.07.39.07.39,5.72-.65,11.49-.78,17.21-.25,39.79,3.14,70.66,35.65,73.48,73.61-.02.84,1.41,10.65,1.41,10.65,0,0,1.67-5.36,2.78-11.97,3.56-31.03,25.71-59.43,62.03-68.16l-.05-.3c-17.75,3.03-34.29,12.44-46.02,26.1Z"/>
  </g>
</svg>